<svg xmlns="http://www.w3.org/2000/svg" width="165" height="245" viewBox="0 0 165 245"><defs><style>.a{fill:#f5f5f5;}.b{fill:#fff;}.c{fill:#d60028;}.d{fill:#242422;}</style></defs><rect class="a" width="165" height="245"/><g transform="translate(-46.5 -366.5)"><path class="b" d="M172.465,500.3a58.33,58.33,0,0,1-16.844,14.777,116.464,116.464,0,0,1-11.162,5.46,32.138,32.138,0,0,1-6.667,2.4,32.179,32.179,0,0,1-6.749.388l-9.065-.116a67,67,0,0,1-7.431-.372,39.417,39.417,0,0,1-11.12-3.2A66.385,66.385,0,0,1,93.181,513.8c-1.632-1.11-3.23-2.269-4.808-3.454-1.192-.9-2.282-1.862-2.421-3.444-.321-3.661,3.632-4.514,6.344-5.2q6.284-1.582,12.684-2.644,6.364-1.061,12.8-1.63t12.907-.69q6.5-.119,13.007.2,6.474.313,12.921,1.03t12.829,1.8A15.875,15.875,0,0,0,172.465,500.3Z"/></g><g transform="translate(-46.5 -366.5)"><path class="c" d="M129.227,494.728c2.281.042,5.08.248,8.154.56a10.456,10.456,0,1,1-16.155-.186A77.476,77.476,0,0,1,129.227,494.728Z"/><path class="d" d="M89,490.164l-.528-.733c9.518-6.862,24.506-15.042,41.854-15.042,16.309,0,30.556,7.336,39.635,13.491l-.507.747c-8.974-6.083-23.048-13.335-39.128-13.335C113.224,475.292,98.416,483.379,89,490.164Z"/><path d="M88.892,490.862l-1.113-1.544.406-.293c9.578-6.9,24.665-15.136,42.146-15.136,16.436,0,30.778,7.383,39.916,13.577l.414.281-1.069,1.575-.414-.28c-8.916-6.045-22.893-13.25-38.847-13.25-16.974,0-31.683,8.036-41.033,14.777Z"/><path class="d" d="M129.227,520.826c-12.888,0-24.471-5.329-31.918-9.8a80.19,80.19,0,0,1-13.207-9.8l-.334-.324.334-.324a80.19,80.19,0,0,1,13.207-9.8c7.447-4.47,19.03-9.8,31.918-9.8s24.47,5.33,31.918,9.8a80.1,80.1,0,0,1,13.206,9.8l.334.324-.334.324a80.1,80.1,0,0,1-13.206,9.8C153.7,515.5,142.114,520.826,129.227,520.826ZM85.079,500.9c2.765,2.535,21.627,19.02,44.148,19.02s41.382-16.485,44.148-19.02c-2.766-2.535-21.627-19.02-44.148-19.02S87.843,498.368,85.079,500.9Z"/><path d="M129.227,521.326c-13,0-24.675-5.368-32.175-9.872a80.8,80.8,0,0,1-13.3-9.865l-.7-.686.7-.682a80.684,80.684,0,0,1,13.3-9.869c7.5-4.5,19.172-9.872,32.175-9.872s24.673,5.369,32.175,9.872a80.769,80.769,0,0,1,13.3,9.866l.7.685-.7.683a80.69,80.69,0,0,1-13.3,9.868C153.9,515.958,142.23,521.326,129.227,521.326ZM85.825,500.9c3.506,3.119,21.906,18.52,43.4,18.52s39.894-15.4,43.4-18.52c-3.507-3.121-21.908-18.52-43.4-18.52S89.331,497.782,85.825,500.9Z"/><path class="d" d="M173.953,501.347c-.313-.059-31.487-5.924-44.734-6.168s-44.4,6.1-44.712,6.167l-.181-.885c.315-.064,31.586-6.433,44.909-6.185s44.572,6.124,44.886,6.184Z"/><path d="M84.118,501.937l-.382-1.866.49-.1c.315-.064,31.611-6.456,45.018-6.2,13.286.245,44.657,6.133,44.97,6.193l.491.093-.353,1.868-.507-.1c-1.288-.241-31.7-5.918-44.636-6.155-13.074-.263-44.29,6.091-44.6,6.156Z"/><path class="d" d="M129.227,520.826a19.01,19.01,0,0,1-18.115-24.73l.861.272a18.093,18.093,0,1,0,34.577.224l.865-.261a19.011,19.011,0,0,1-18.188,24.495Z"/><path d="M129.227,521.326a19.511,19.511,0,0,1-18.592-25.381l.151-.477,1.814.574-.151.477a17.593,17.593,0,1,0,33.623.217l-.145-.478,1.822-.55.144.479a19.509,19.509,0,0,1-18.666,25.139Z"/><rect class="d" width="0.903" height="46.438" transform="translate(128.775 423.287)"/><rect width="1.903" height="47.438" transform="translate(128.275 422.787)"/><rect class="d" width="0.903" height="41.745" transform="translate(118.22 428.741) rotate(-5.981)"/><rect width="1.903" height="42.745" transform="matrix(0.995, -0.104, 0.104, 0.995, 117.67, 428.295)"/><rect class="d" width="0.903" height="38.076" transform="matrix(0.974, -0.225, 0.225, 0.974, 107.69, 434.394)"/><rect width="1.903" height="39.075" transform="matrix(0.974, -0.225, 0.225, 0.974, 107.09, 434.019)"/><rect class="d" width="0.903" height="32.422" transform="translate(99.391 442.765) rotate(-20.352)"/><rect width="1.903" height="33.422" transform="matrix(0.938, -0.348, 0.348, 0.938, 98.748, 442.471)"/><rect class="d" width="0.903" height="26.125" transform="matrix(0.868, -0.496, 0.496, 0.868, 92.094, 452.384)"/><rect width="1.903" height="27.125" transform="matrix(0.868, -0.496, 0.496, 0.868, 91.412, 452.198)"/><rect class="d" width="0.903" height="19.278" transform="matrix(0.777, -0.63, 0.63, 0.777, 87.078, 462.827)"/><rect width="1.903" height="20.278" transform="matrix(0.777, -0.63, 0.63, 0.777, 86.375, 462.753)"/><rect class="d" width="0.903" height="12.775" transform="translate(84.116 472.751) rotate(-48.24)"/><rect width="1.903" height="13.775" transform="matrix(0.666, -0.746, 0.746, 0.666, 83.41, 472.791)"/><rect class="d" width="0.903" height="6.355" transform="matrix(0.535, -0.845, 0.845, 0.535, 83.132, 481.194)"/><rect width="1.903" height="7.355" transform="matrix(0.535, -0.845, 0.845, 0.535, 82.442, 481.349)"/><rect class="d" width="41.745" height="0.903" transform="matrix(0.104, -0.995, 0.995, 0.104, 134.986, 470.164)"/><rect width="42.745" height="1.903" transform="translate(134.443 470.611) rotate(-84.036)"/><rect class="d" width="38.076" height="0.903" transform="translate(141.321 471.291) rotate(-77)"/><rect width="39.075" height="1.903" transform="translate(140.72 471.665) rotate(-76.998)"/><rect class="d" width="32.422" height="0.903" transform="translate(146.942 472.85) rotate(-69.655)"/><rect width="33.422" height="1.903" transform="translate(146.3 473.145) rotate(-69.654)"/><rect class="d" width="26.125" height="0.903" transform="translate(152.609 474.616) rotate(-60.238)"/><rect width="27.125" height="1.903" transform="translate(151.929 474.803) rotate(-60.251)"/><rect class="d" width="19.278" height="0.903" transform="translate(158.537 477.236) rotate(-50.984)"/><rect width="20.277" height="1.903" transform="translate(157.834 477.31) rotate(-50.989)"/><rect class="d" width="12.775" height="0.903" transform="matrix(0.746, -0.666, 0.666, 0.746, 164.207, 480.585)"/><rect width="13.775" height="1.903" transform="translate(163.501 480.546) rotate(-41.765)"/><rect class="d" width="6.355" height="0.903" transform="translate(169.471 483.835) rotate(-32.38)"/><rect width="7.355" height="1.903" transform="matrix(0.845, -0.535, 0.535, 0.845, 168.78, 483.679)"/><circle class="d" cx="1.564" cy="1.564" r="1.564" transform="translate(75.771 499.339)"/><circle class="d" cx="1.564" cy="1.564" r="1.564" transform="translate(60.786 499.339)"/><circle class="d" cx="2.429" cy="2.429" r="2.429" transform="translate(67.414 498.474)"/><circle class="d" cx="1.564" cy="1.564" r="1.564" transform="translate(179.554 499.339)"/><circle class="d" cx="1.564" cy="1.564" r="1.564" transform="translate(194.539 499.339)"/><circle class="d" cx="2.429" cy="2.429" r="2.429" transform="translate(186.182 498.474)"/><circle class="d" cx="3.312" cy="3.312" r="3.312" transform="translate(125.915 525.147)"/><circle class="d" cx="2.154" cy="2.154" r="2.154" transform="translate(127.072 533.859)"/><circle class="d" cx="1.372" cy="1.372" r="1.372" transform="translate(127.855 540.255)"/></g></svg>